<?xml version="1.0" encoding="UTF-8" standalone="no"?>
<svg
   xmlns:osb="http://www.openswatchbook.org/uri/2009/osb"
   xmlns:dc="http://purl.org/dc/elements/1.1/"
   xmlns:cc="http://creativecommons.org/ns#"
   xmlns:rdf="http://www.w3.org/1999/02/22-rdf-syntax-ns#"
   xmlns:svg="http://www.w3.org/2000/svg"
   xmlns="http://www.w3.org/2000/svg"
   xmlns:xlink="http://www.w3.org/1999/xlink"
   xml:space="preserve"
   style="enable-background:new 0 0 295.238 295.238;"
   viewBox="0 0 295.238 295.238"
   y="0px"
   x="0px"
   id="Layer_1"
   version="1.1"><metadata
     id="metadata47"><rdf:RDF><cc:Work
         rdf:about=""><dc:format>image/svg+xml</dc:format><dc:type
           rdf:resource="http://purl.org/dc/dcmitype/StillImage" /><dc:title></dc:title></cc:Work></rdf:RDF></metadata><defs
     id="defs45"><linearGradient
       osb:paint="solid"
       id="linearGradient4237"><stop
         id="stop4239"
         offset="0"
         style="stop-color:#ffcc00;stop-opacity:1;" /></linearGradient></defs><g
     id="g3"><g
       id="g5"><g
         id="g7"><path
           id="path9"
           d="M289.895,264.115l-25.871-25.877c19.533-25.033,31.214-56.476,31.214-90.619C295.238,66.224,229.014,0,147.619,0     S0,66.224,0,147.619s66.224,147.619,147.619,147.619c34.143,0,65.586-11.681,90.619-31.214l25.876,25.876     c3.448,3.443,8.024,5.338,12.891,5.338c10.057,0,18.233-8.176,18.233-18.233C295.238,272.138,293.343,267.557,289.895,264.115z      M260.939,226.405c-3.729-2.743-10.01-6.691-19.477-10.724l-19.352-19.352c3.838-14.01,5.933-28.757,6.3-43.948h57.186     C284.658,179.833,275.686,205.262,260.939,226.405z M285.595,142.858h-57.138v-0.001c-0.51-21-4.314-39.51-10.043-55.614     c23.081-5.976,36.357-13.843,42.538-18.39C275.69,89.991,284.657,115.415,285.595,142.858z M188.933,163.152     c2.081-3.433,3.933-7.014,5.457-10.771h24.495c-0.314,12.424-1.857,24.514-4.619,36.105L188.933,163.152z M193.266,180.953     l-12.314,12.314l-9.838-9.838c4.562-3.624,8.686-7.752,12.314-12.314L193.266,180.953z M197.49,142.857     c1.581-6.1,2.51-12.462,2.51-19.048c0-11.281-2.529-21.957-6.948-31.6c5.729-0.81,11.071-1.743,16.019-2.781     c5.591,15.415,9.343,33.186,9.862,53.429H197.49z M255.224,61.205c-5.376,3.914-17.886,11.395-40.295,17.081     C200.624,44.3,178.286,22.143,163.871,10.51C200.686,14.852,233.1,33.71,255.224,61.205z M152.381,13.648     c12.233,8.895,37.462,30.557,53.133,66.79c-5.295,1.081-11.076,2.024-17.319,2.819c-8.471-13.405-20.962-23.995-35.814-30.033     V13.648z M131.119,10.543c-10.748,8.6-25.781,22.986-38.729,43.933c-10.119,4.605-19.048,11.338-26.229,19.652     C52.452,69.362,44.138,64.233,40,61.214C62.081,33.776,94.405,14.938,131.119,10.543z M142.857,13.629v36.5     c-6.1-1.581-12.462-2.51-19.048-2.51c-5.714,0-11.257,0.681-16.614,1.881C120.347,31.4,134.576,19.605,142.857,13.629z      M34.291,68.844c4.514,3.314,12.781,8.405,25.843,13.243c-7.886,11.994-12.515,26.323-12.515,41.723     c0,6.586,0.929,12.948,2.51,19.048H9.643C10.581,115.415,19.553,89.987,34.291,68.844z M9.643,152.381h43.586     c3.657,9.005,8.995,17.138,15.614,24.048c1.748,11.41,4.452,21.9,7.824,31.533c-23.062,5.971-36.21,13.857-42.386,18.414     C19.548,205.238,10.581,179.819,9.643,152.381z M39.986,233.995c5.333-3.919,17.686-11.405,40.076-17.071     c14.181,34.21,36.438,56.186,50.957,67.757C94.333,280.262,62.043,261.424,39.986,233.995z M142.857,281.59     c-12.252-8.886-37.562-30.562-53.224-66.838c14.21-2.871,31.791-4.914,53.224-5.181V281.59z M142.858,200.047     c-22.9,0.281-41.643,2.538-56.79,5.719c-2.211-6.099-4.125-12.576-5.668-19.423C92.729,194.929,107.681,200,123.81,200     c6.586,0,12.948-0.929,19.048-2.51V200.047z M123.81,190.477c-36.762,0-66.667-29.905-66.667-66.667     c0-36.762,29.905-66.667,66.667-66.667s66.667,29.905,66.667,66.667C190.477,160.572,160.572,190.477,123.81,190.477z      M152.381,194.39c3.757-1.529,7.338-3.376,10.771-5.457l12.157,12.157c-7.41-0.586-15.067-0.924-22.929-1.024     C152.381,200.067,152.381,194.39,152.381,194.39z M152.381,209.59c11.7,0.152,22.952,0.843,33.519,2.09l14.357,14.357     c-15.543,29.538-36.924,47.652-47.876,55.562V209.59z M164.143,284.69c12.024-9.614,29.386-26.486,43.152-51.614l24.167,24.167     C212.329,271.914,189.267,281.681,164.143,284.69z M238.848,251.162L187.686,200L200,187.686l51.162,51.162     C247.319,243.205,243.205,247.319,238.848,251.162z M277.005,285.714c-2.324,0-4.51-0.905-6.157-2.552l-25.257-25.257     c4.343-3.862,8.452-7.971,12.314-12.314l25.257,25.257c1.648,1.648,2.552,3.833,2.552,6.157     C285.714,281.81,281.81,285.714,277.005,285.714z" /></g></g></g><g
     id="g13" /><g
     id="g15" /><g
     id="g17" /><g
     id="g19" /><g
     id="g21" /><g
     id="g23" /><g
     id="g25" /><g
     id="g27" /><g
     id="g29" /><g
     id="g31" /><g
     id="g33" /><g
     id="g35" /><g
     id="g37" /><g
     id="g39" /><g
     id="g41" /><flowRoot
     style="font-style:normal;font-weight:normal;font-size:40px;line-height:125%;font-family:Sans;letter-spacing:0px;word-spacing:0px;fill:#000000;fill-opacity:1;stroke:none;stroke-width:1px;stroke-linecap:butt;stroke-linejoin:miter;stroke-opacity:1"
     id="flowRoot3375"
     xml:space="preserve"><flowRegion
       id="flowRegion3377"><rect
         y="79.838737"
         x="80.498291"
         height="92.440346"
         width="85.363571"
         id="rect3379" /></flowRegion><flowPara
       id="flowPara3381" /></flowRoot><text
     id="text3383"
     y="103.28055"
     x="118.97824"
     style="font-style:normal;font-weight:normal;font-size:40px;line-height:125%;font-family:Sans;letter-spacing:0px;word-spacing:0px;fill:#000000;fill-opacity:1;stroke:none;stroke-width:1px;stroke-linecap:butt;stroke-linejoin:miter;stroke-opacity:1"
     xml:space="preserve"><tspan
       y="103.28055"
       x="118.97824"
       id="tspan3385"></tspan></text>
<ellipse
     ry="50.978596"
     rx="62.237671"
     cy="122.28608"
     cx="124.16259"
     id="path3433"
     style="fill:none;fill-opacity:1" /><ellipse
     ry="71.932991"
     rx="74.122246"
     cy="124.47535"
     cx="124.78809"
     id="path4243"
     style="fill:none;fill-opacity:1" /><flowRoot
     id="flowRoot5719"
     style="font-style:normal;font-weight:normal;font-size:6.25px;line-height:125%;font-family:Sans;letter-spacing:0px;word-spacing:0px;fill:#000000;fill-opacity:1;stroke:none;stroke-width:1px;stroke-linecap:butt;stroke-linejoin:miter;stroke-opacity:1"
     xml:space="preserve"><flowRegion
       id="flowRegion5721"><use
         id="use5723"
         xlink:href="#path4243"
         y="0"
         x="0" /></flowRegion><flowPara
       id="flowPara5725">0 1 0 1 0 0 0 0 1 1 0 0 1 1 1 1 0 0 1 0 1 0 0 1 0 0 1 0 0 1 0 0 0 0 1 0 1 1 0 0 0 0 1 0 0 1 0 1 0 1 0 0 0 1 0 0 1 1 0 0 1 1 0 1 1 1 0 0 0 0 1 1 0 1 0 0 0 1 0 1 1 1 0 0 1 0 0 1 0 0 1 0 0 0 0 0 1 0 0 0 1 1 0 1 0 1 0 1 0 1 1 1 1 1 1 1 1 0 0 0 1 1 1 0 0 0 1 1 1 1 1 0 0 0 0 1 1 0 1 0 1 0 0 1 1 1 1 0 1 0 1 1 1 0 0 0 0 0 0 0 1 1 0 1 0 1 0 0 0 1 1 1 0 1 0 1 0 0 0 1 1 1 1 0 0 0 0 1 1 1 0 0 1 1 1 0 1 0 0 0 0 0 1 1 0 1 1 0 1 0 1 0 1 1 0 0 0 1 1 0 1 0 0 1 0 0 0 1 1 1 0 1 1 0 0 0 0 0 0 1 0 0 0 0 1 1 0 1 1 1 0 0 1 1 0 0 0 1 1 0 0 0 0 0 1 1 1 1 1 1 0 0 0 1 0 0 1 0 0 0 0 1 0 0 0 1 1 1 0 0 0 0 1 0 0 0 1 1 0 0 0 1 1 1 0 1 0 0 0 1 1 1 0 0 0 1 0 1 1 1 1 1 1 1 1 1 1 0 1 0 1 1 1 1 0 1 1 0 1 0 1 1 1 0 0 1 1 1 0 0 1 1 0 0 0 0 0 0 1 1 1 1 0 1 1 0 1 1 0 1 0 1 1 1 0 1 0 1 0 0 0 1 0 1 0 0 1 0 1 1 1 0 1 1 1 1 1 0 1 1 1 0 0 0 0 1 1 0 1 0 1 1 0 1 1 1 1 0 1 0 0 1 1 1 0 1 0 0 0 1 1 0 1 0 1 0 0 0 0 1 0 0 0 0 0 1 1 1 0 0 0 0 1 0 0 0 0 1 1 0 0 1 0 0 1 1 0 1 0 0 0 1 0 1 1 1 1 0 1 1 0 1 0 1 0 0 1 0 0 1 0 1 0 1 1 1 0 0 0 0 1 0 0 1 0 1 0 0 1 1 1 1 1 0 0 0 1 1 0 1 1 1 0 1 1 1 1 1 1 1 1 1 0 1 1 1 0 1 1 0 0 0 1 1 1 0 0 0 0 0 1 1 0 1 1 0 1 1 0 0 1 0 0 1 0 1 0 0 0 0 1 1 0 1 0 0 0 0 1 1 1 1 1 1 1 1 1 0 0 1 0 0 0 1 1 1 1 1 1 0 0 1 0 1 1 0 0 0 0 1 1 0 1 1 0 0 0 0 0 0 0 0 1 1 1 1 1 1 0 1 1 0 0 1 0 1 1 1 1 1 1 0 0 0 1 1 0 1 1 1 1 1 0 1 1 0 1 0 1 1 1 1 0 1 0 1 0 0 1 1 0 1 0 0 1 1 0 1 0 0 0 0 0 0 0 1 1 1 0 1 0 1 1 0 1 1 1 0 0 1 0 1 0 0 1 1 1 0 1 0 0 1 1 1 0 0 0 0 0 1 0 1 1 1 0 0 1 0 0 1 1 1 0 1 0 0 0 1 1 1 1 1 0 1 0 0 0 1 1 1 0 0 1 0 0 1 1 0 1 1 1 1 0 1 1 0 0 1 1 0 1 1 0 0 1 0 1 1 1 1 0 0 1 1 0 0 1 1 1 1 0 1 0 1 0 1 1 0 0 1 0 1 1 0 1 1 1 0 1 0 0 0 1 1 1 0 0 0 1 0 0 1 0 0 0 1 0 1 1 0 0 0 0 1 1 1 0 1 1 1 1 0 0 0 0 0 0 0 1 1 0 0 0 0 0 1 0 0 0 0 1 0 1 0 0 0 0 0 1 1 0 0 1 1 1 0 1 1 0 0 1 0 0 1 0 0 1 1 1 0 0 1 1 0 1 1 0 1 0 1 1 1 1 1 0 1 1 0 0 0 1 1 0 0 1 1 1 1 1 1 0 0 0 1 0 1 1 1 0 1 0 1 0 0 0 0 1 1 1 0 1 1 0 1 0 0 0 1 0 1 0 1 1 1 1 1 0 1 0 1 0 1 0 1 0 1 1 1 1 1 0 1 0 1 1 0 1 0 1 0 0 1 1 1 0 1 1 0 0 1 0 1 1 1 1 1 1 1 0 1 1 1 0 1 1 0 1 0 0 0 1 1 1 1 1 0 1 1 0 1 1 0 0 1 0 1 1 1 0 1 1 0 0 1 1 0 0 0 1 1 1 0 0 0 1 1</flowPara></flowRoot></svg>